<svg xmlns="http://www.w3.org/2000/svg" width="512" height="512" viewBox="0 0 512 512" role="img" aria-label="ITOMER favicon">
  <defs>
    <linearGradient id="bg" x1="80" y1="50" x2="430" y2="470" gradientUnits="userSpaceOnUse">
      <stop offset="0" stop-color="#16120d"/>
      <stop offset="0.5" stop-color="#070707"/>
      <stop offset="1" stop-color="#21170c"/>
    </linearGradient>
    <linearGradient id="gold" x1="126" y1="134" x2="386" y2="375" gradientUnits="userSpaceOnUse">
      <stop offset="0" stop-color="#fff0be"/>
      <stop offset="0.28" stop-color="#d8b36a"/>
      <stop offset="0.58" stop-color="#9a6e2e"/>
      <stop offset="1" stop-color="#f2d289"/>
    </linearGradient>
    <linearGradient id="line" x1="110" y1="249" x2="403" y2="249" gradientUnits="userSpaceOnUse">
      <stop offset="0" stop-color="#8a672e" stop-opacity="0"/>
      <stop offset="0.22" stop-color="#f2d289"/>
      <stop offset="0.78" stop-color="#f2d289"/>
      <stop offset="1" stop-color="#8a672e" stop-opacity="0"/>
    </linearGradient>
    <filter id="shadow" x="72" y="96" width="368" height="344" filterUnits="userSpaceOnUse" color-interpolation-filters="sRGB">
      <feDropShadow dx="0" dy="18" stdDeviation="20" flood-color="#000000" flood-opacity="0.5"/>
    </filter>
    <filter id="glow" x="60" y="52" width="392" height="408" filterUnits="userSpaceOnUse" color-interpolation-filters="sRGB">
      <feGaussianBlur stdDeviation="8" result="blur"/>
      <feColorMatrix in="blur" type="matrix" values="1 0 0 0 0.88 0 1 0 0 0.66 0 0 1 0 0.30 0 0 0 0.45 0"/>
      <feBlend in="SourceGraphic"/>
    </filter>
  </defs>

  <rect width="512" height="512" rx="112" fill="url(#bg)"/>
  <path d="M82 365C132 413 198 438 256 438C314 438 380 413 430 365" fill="none" stroke="#d8b36a" stroke-width="6" stroke-linecap="round" opacity="0.22"/>
  <path d="M92 151C143 99 199 75 256 75C313 75 369 99 420 151" fill="none" stroke="#f2d289" stroke-width="4" stroke-linecap="round" opacity="0.18"/>

  <g filter="url(#shadow)">
    <path d="M121 276L158 184C165 166 182 154 202 154H310C330 154 347 166 354 184L391 276" fill="none" stroke="url(#gold)" stroke-width="28" stroke-linecap="round" stroke-linejoin="round"/>
    <path d="M137 276H375C397 276 415 294 415 316V336C415 346 407 354 397 354H374C365 354 357 348 354 340L348 322H164L158 340C155 348 147 354 138 354H115C105 354 97 346 97 336V316C97 294 115 276 137 276Z" fill="none" stroke="url(#gold)" stroke-width="28" stroke-linejoin="round"/>
    <path d="M176 216H336" stroke="url(#line)" stroke-width="18" stroke-linecap="round"/>
    <path d="M171 311H204" stroke="#fff0be" stroke-width="16" stroke-linecap="round" opacity="0.92"/>
    <path d="M308 311H341" stroke="#fff0be" stroke-width="16" stroke-linecap="round" opacity="0.92"/>
  </g>

  <g filter="url(#glow)">
    <path d="M256 125V395" stroke="url(#gold)" stroke-width="30" stroke-linecap="round"/>
    <path d="M204 126H308" stroke="url(#gold)" stroke-width="30" stroke-linecap="round"/>
  </g>

  <circle cx="160" cy="354" r="9" fill="#f2d289" opacity="0.72"/>
  <circle cx="352" cy="354" r="9" fill="#f2d289" opacity="0.72"/>
</svg>
